<?xml version="1.0" encoding="UTF-8" standalone="no"?>
<!DOCTYPE svg PUBLIC "-//W3C//DTD SVG 1.1//EN"
 "http://www.w3.org/Graphics/SVG/1.1/DTD/svg11.dtd">
<!-- Generated by graphviz version 5.0.0 (20220707.1540)
 -->
<!-- Title: dependencies Pages: 1 -->
<svg width="745pt" height="174pt"
 viewBox="0.00 0.00 745.00 173.80" xmlns="http://www.w3.org/2000/svg" xmlns:xlink="http://www.w3.org/1999/xlink">
<g id="graph0" class="graph" transform="scale(1 1) rotate(0) translate(4 169.8)">
<title>dependencies</title>
<polygon fill="white" stroke="transparent" points="-4,4 -4,-169.8 741,-169.8 741,4 -4,4"/>
<text text-anchor="middle" x="368.5" y="-8.2" font-family="sans-serif" font-size="14.00">dependencies</text>
<g id="clust1" class="cluster">
<title>cluster_MonsterModule</title>
<polygon fill="none" stroke="black" stroke-dasharray="1,5" points="8,-32.8 8,-157.8 729,-157.8 729,-32.8 8,-32.8"/>
</g>
<g id="clust7" class="cluster">
<title>cluster_MonsterModule_imports</title>
<polygon fill="none" stroke="black" points="553,-40.8 553,-92.8 721,-92.8 721,-40.8 553,-40.8"/>
</g>
<g id="clust2" class="cluster">
<title>cluster_MonsterModule_declarations</title>
<polygon fill="none" stroke="black" points="16,-40.8 16,-92.8 545,-92.8 545,-40.8 16,-40.8"/>
</g>
<!-- AddComponent -->
<g id="node1" class="node">
<title>AddComponent</title>
<polygon fill="#ffffb3" stroke="black" points="536.94,-84.8 431.06,-84.8 431.06,-48.8 536.94,-48.8 536.94,-84.8"/>
<text text-anchor="middle" x="484" y="-62.6" font-family="Times,serif" font-size="14.00">AddComponent</text>
</g>
<!-- MonsterModule -->
<g id="node5" class="node">
<title>MonsterModule</title>
<polygon fill="#8dd3c7" stroke="black" points="407.21,-149.8 404.21,-153.8 383.21,-153.8 380.21,-149.8 300.79,-149.8 300.79,-113.8 407.21,-113.8 407.21,-149.8"/>
<text text-anchor="middle" x="354" y="-127.6" font-family="Times,serif" font-size="14.00">MonsterModule</text>
</g>
<!-- AddComponent&#45;&gt;MonsterModule -->
<g id="edge1" class="edge">
<title>AddComponent&#45;&gt;MonsterModule</title>
<path fill="none" stroke="black" d="M484,-84.82C484,-102.17 484,-125.8 484,-125.8 484,-125.8 417.25,-125.8 417.25,-125.8"/>
<polygon fill="black" stroke="black" points="417.25,-122.3 407.25,-125.8 417.25,-129.3 417.25,-122.3"/>
</g>
<!-- DeleteComponent -->
<g id="node2" class="node">
<title>DeleteComponent</title>
<polygon fill="#ffffb3" stroke="black" points="412.86,-84.8 295.14,-84.8 295.14,-48.8 412.86,-48.8 412.86,-84.8"/>
<text text-anchor="middle" x="354" y="-62.6" font-family="Times,serif" font-size="14.00">DeleteComponent</text>
</g>
<!-- DeleteComponent&#45;&gt;MonsterModule -->
<g id="edge2" class="edge">
<title>DeleteComponent&#45;&gt;MonsterModule</title>
<path fill="none" stroke="black" d="M354,-84.91C354,-84.91 354,-103.79 354,-103.79"/>
<polygon fill="black" stroke="black" points="350.5,-103.79 354,-113.79 357.5,-103.79 350.5,-103.79"/>
</g>
<!-- IndexComponent -->
<g id="node3" class="node">
<title>IndexComponent</title>
<polygon fill="#ffffb3" stroke="black" points="276.71,-84.8 163.29,-84.8 163.29,-48.8 276.71,-48.8 276.71,-84.8"/>
<text text-anchor="middle" x="220" y="-62.6" font-family="Times,serif" font-size="14.00">IndexComponent</text>
</g>
<!-- IndexComponent&#45;&gt;MonsterModule -->
<g id="edge3" class="edge">
<title>IndexComponent&#45;&gt;MonsterModule</title>
<path fill="none" stroke="black" d="M220,-84.82C220,-102.17 220,-125.8 220,-125.8 220,-125.8 290.65,-125.8 290.65,-125.8"/>
<polygon fill="black" stroke="black" points="290.65,-129.3 300.65,-125.8 290.65,-122.3 290.65,-129.3"/>
</g>
<!-- UpdateComponent -->
<g id="node4" class="node">
<title>UpdateComponent</title>
<polygon fill="#ffffb3" stroke="black" points="145.76,-84.8 24.24,-84.8 24.24,-48.8 145.76,-48.8 145.76,-84.8"/>
<text text-anchor="middle" x="85" y="-62.6" font-family="Times,serif" font-size="14.00">UpdateComponent</text>
</g>
<!-- UpdateComponent&#45;&gt;MonsterModule -->
<g id="edge4" class="edge">
<title>UpdateComponent&#45;&gt;MonsterModule</title>
<path fill="none" stroke="black" d="M85,-85.08C85,-106.12 85,-137.8 85,-137.8 85,-137.8 290.85,-137.8 290.85,-137.8"/>
<polygon fill="black" stroke="black" points="290.85,-141.3 300.85,-137.8 290.85,-134.3 290.85,-141.3"/>
</g>
<!-- MonsterRoutingModule -->
<g id="node6" class="node">
<title>MonsterRoutingModule</title>
<polygon fill="#8dd3c7" stroke="black" points="712.83,-84.8 709.83,-88.8 688.83,-88.8 685.83,-84.8 561.17,-84.8 561.17,-48.8 712.83,-48.8 712.83,-84.8"/>
<text text-anchor="middle" x="637" y="-62.6" font-family="Times,serif" font-size="14.00">MonsterRoutingModule</text>
</g>
<!-- MonsterRoutingModule&#45;&gt;MonsterModule -->
<g id="edge5" class="edge">
<title>MonsterRoutingModule&#45;&gt;MonsterModule</title>
<path fill="none" stroke="black" d="M637,-85.08C637,-106.12 637,-137.8 637,-137.8 637,-137.8 417.23,-137.8 417.23,-137.8"/>
<polygon fill="black" stroke="black" points="417.23,-134.3 407.23,-137.8 417.23,-141.3 417.23,-134.3"/>
</g>
</g>
</svg>
