<?xml version="1.0" encoding="UTF-8" standalone="no"?>
<!DOCTYPE svg PUBLIC "-//W3C//DTD SVG 1.1//EN"
 "http://www.w3.org/Graphics/SVG/1.1/DTD/svg11.dtd">
<!-- Generated by graphviz version 5.0.0 (20220707.1540)
 -->
<!-- Title: dependencies Pages: 1 -->
<svg width="679pt" height="174pt"
 viewBox="0.00 0.00 679.00 173.80" xmlns="http://www.w3.org/2000/svg" xmlns:xlink="http://www.w3.org/1999/xlink">
<g id="graph0" class="graph" transform="scale(1 1) rotate(0) translate(4 169.8)">
<title>dependencies</title>
<polygon fill="white" stroke="transparent" points="-4,4 -4,-169.8 675,-169.8 675,4 -4,4"/>
<text text-anchor="middle" x="335.5" y="-8.2" font-family="sans-serif" font-size="14.00">dependencies</text>
<g id="clust1" class="cluster">
<title>cluster_AdminModule</title>
<polygon fill="none" stroke="black" stroke-dasharray="1,5" points="8,-32.8 8,-157.8 663,-157.8 663,-32.8 8,-32.8"/>
</g>
<g id="clust6" class="cluster">
<title>cluster_AdminModule_imports</title>
<polygon fill="none" stroke="black" points="495,-40.8 495,-92.8 655,-92.8 655,-40.8 495,-40.8"/>
</g>
<g id="clust2" class="cluster">
<title>cluster_AdminModule_declarations</title>
<polygon fill="none" stroke="black" points="16,-40.8 16,-92.8 487,-92.8 487,-40.8 16,-40.8"/>
</g>
<!-- LayoutComponent -->
<g id="node1" class="node">
<title>LayoutComponent</title>
<polygon fill="#ffffb3" stroke="black" points="479.49,-84.8 358.51,-84.8 358.51,-48.8 479.49,-48.8 479.49,-84.8"/>
<text text-anchor="middle" x="419" y="-62.6" font-family="Times,serif" font-size="14.00">LayoutComponent</text>
</g>
<!-- AdminModule -->
<g id="node4" class="node">
<title>AdminModule</title>
<polygon fill="#8dd3c7" stroke="black" points="393.44,-149.8 390.44,-153.8 369.44,-153.8 366.44,-149.8 294.56,-149.8 294.56,-113.8 393.44,-113.8 393.44,-149.8"/>
<text text-anchor="middle" x="344" y="-127.6" font-family="Times,serif" font-size="14.00">AdminModule</text>
</g>
<!-- LayoutComponent&#45;&gt;AdminModule -->
<g id="edge1" class="edge">
<title>LayoutComponent&#45;&gt;AdminModule</title>
<path fill="none" stroke="black" d="M375.86,-84.91C375.86,-84.91 375.86,-103.79 375.86,-103.79"/>
<polygon fill="black" stroke="black" points="372.36,-103.79 375.86,-113.79 379.36,-103.79 372.36,-103.79"/>
</g>
<!-- NavigationComponent -->
<g id="node2" class="node">
<title>NavigationComponent</title>
<polygon fill="#ffffb3" stroke="black" points="340.54,-84.8 197.46,-84.8 197.46,-48.8 340.54,-48.8 340.54,-84.8"/>
<text text-anchor="middle" x="269" y="-62.6" font-family="Times,serif" font-size="14.00">NavigationComponent</text>
</g>
<!-- NavigationComponent&#45;&gt;AdminModule -->
<g id="edge2" class="edge">
<title>NavigationComponent&#45;&gt;AdminModule</title>
<path fill="none" stroke="black" d="M317.77,-84.91C317.77,-84.91 317.77,-103.79 317.77,-103.79"/>
<polygon fill="black" stroke="black" points="314.27,-103.79 317.77,-113.79 321.27,-103.79 314.27,-103.79"/>
</g>
<!-- PanelControlComponent -->
<g id="node3" class="node">
<title>PanelControlComponent</title>
<polygon fill="#ffffb3" stroke="black" points="179.71,-84.8 24.29,-84.8 24.29,-48.8 179.71,-48.8 179.71,-84.8"/>
<text text-anchor="middle" x="102" y="-62.6" font-family="Times,serif" font-size="14.00">PanelControlComponent</text>
</g>
<!-- PanelControlComponent&#45;&gt;AdminModule -->
<g id="edge3" class="edge">
<title>PanelControlComponent&#45;&gt;AdminModule</title>
<path fill="none" stroke="black" d="M102,-84.91C102,-104.14 102,-131.8 102,-131.8 102,-131.8 284.74,-131.8 284.74,-131.8"/>
<polygon fill="black" stroke="black" points="284.74,-135.3 294.74,-131.8 284.74,-128.3 284.74,-135.3"/>
</g>
<!-- AdminRoutingModule -->
<g id="node5" class="node">
<title>AdminRoutingModule</title>
<polygon fill="#8dd3c7" stroke="black" points="646.56,-84.8 643.56,-88.8 622.56,-88.8 619.56,-84.8 503.44,-84.8 503.44,-48.8 646.56,-48.8 646.56,-84.8"/>
<text text-anchor="middle" x="575" y="-62.6" font-family="Times,serif" font-size="14.00">AdminRoutingModule</text>
</g>
<!-- AdminRoutingModule&#45;&gt;AdminModule -->
<g id="edge4" class="edge">
<title>AdminRoutingModule&#45;&gt;AdminModule</title>
<path fill="none" stroke="black" d="M575,-84.91C575,-104.14 575,-131.8 575,-131.8 575,-131.8 403.27,-131.8 403.27,-131.8"/>
<polygon fill="black" stroke="black" points="403.27,-128.3 393.27,-131.8 403.27,-135.3 403.27,-128.3"/>
</g>
</g>
</svg>
